<mxfile host="app.diagrams.net" modified="2022-09-01T03:56:16.968Z" agent="5.0 (Macintosh; Intel Mac OS X 10_15_7) AppleWebKit/537.36 (KHTML, like Gecko) Chrome/104.0.0.0 Safari/537.36" etag="LMVlWZlvuOjfQtvVpKQa" version="20.2.7" type="github">
  <diagram id="FAtD121PDvk3IT5kSYtU" name="第 1 页">
    <mxGraphModel dx="1076" dy="730" grid="1" gridSize="10" guides="1" tooltips="1" connect="1" arrows="1" fold="1" page="1" pageScale="1" pageWidth="827" pageHeight="1169" math="0" shadow="0">
      <root>
        <mxCell id="0" />
        <mxCell id="1" parent="0" />
        <mxCell id="8qyLDLOVZx2aeD9UTa0B-10" value="" style="rounded=1;whiteSpace=wrap;html=1;fillColor=none;dashed=1;pointerEvents=0;" vertex="1" parent="1">
          <mxGeometry x="380" y="80" width="710" height="360" as="geometry" />
        </mxCell>
        <mxCell id="8qyLDLOVZx2aeD9UTa0B-4" value="" style="edgeStyle=orthogonalEdgeStyle;rounded=0;orthogonalLoop=1;jettySize=auto;html=1;" edge="1" parent="1" source="8qyLDLOVZx2aeD9UTa0B-1" target="8qyLDLOVZx2aeD9UTa0B-2">
          <mxGeometry relative="1" as="geometry" />
        </mxCell>
        <mxCell id="8qyLDLOVZx2aeD9UTa0B-1" value="API Gateway" style="rounded=1;whiteSpace=wrap;html=1;" vertex="1" parent="1">
          <mxGeometry x="200" y="210" width="120" height="60" as="geometry" />
        </mxCell>
        <mxCell id="8qyLDLOVZx2aeD9UTa0B-5" value="" style="edgeStyle=orthogonalEdgeStyle;rounded=0;orthogonalLoop=1;jettySize=auto;html=1;" edge="1" parent="1" source="8qyLDLOVZx2aeD9UTa0B-2" target="8qyLDLOVZx2aeD9UTa0B-3">
          <mxGeometry relative="1" as="geometry" />
        </mxCell>
        <mxCell id="8qyLDLOVZx2aeD9UTa0B-2" value="SLB" style="rounded=1;whiteSpace=wrap;html=1;" vertex="1" parent="1">
          <mxGeometry x="414" y="210" width="120" height="60" as="geometry" />
        </mxCell>
        <mxCell id="8qyLDLOVZx2aeD9UTa0B-22" value="" style="edgeStyle=orthogonalEdgeStyle;rounded=0;orthogonalLoop=1;jettySize=auto;html=1;" edge="1" parent="1" source="8qyLDLOVZx2aeD9UTa0B-3" target="8qyLDLOVZx2aeD9UTa0B-12">
          <mxGeometry relative="1" as="geometry" />
        </mxCell>
        <mxCell id="8qyLDLOVZx2aeD9UTa0B-3" value="K8S Service" style="rounded=1;whiteSpace=wrap;html=1;" vertex="1" parent="1">
          <mxGeometry x="600" y="210" width="120" height="60" as="geometry" />
        </mxCell>
        <mxCell id="8qyLDLOVZx2aeD9UTa0B-6" value="" style="endArrow=classic;html=1;rounded=0;entryX=0;entryY=0.25;entryDx=0;entryDy=0;" edge="1" parent="1" target="8qyLDLOVZx2aeD9UTa0B-1">
          <mxGeometry width="50" height="50" relative="1" as="geometry">
            <mxPoint x="120" y="225" as="sourcePoint" />
            <mxPoint x="170" y="170" as="targetPoint" />
          </mxGeometry>
        </mxCell>
        <mxCell id="8qyLDLOVZx2aeD9UTa0B-7" value="https" style="text;html=1;align=center;verticalAlign=middle;resizable=0;points=[];autosize=1;strokeColor=none;fillColor=none;" vertex="1" parent="1">
          <mxGeometry x="125" y="185" width="50" height="30" as="geometry" />
        </mxCell>
        <mxCell id="8qyLDLOVZx2aeD9UTa0B-8" value="SSL处理&lt;br&gt;签名处理" style="text;html=1;strokeColor=none;fillColor=none;align=center;verticalAlign=middle;whiteSpace=wrap;rounded=0;" vertex="1" parent="1">
          <mxGeometry x="230" y="290" width="60" height="30" as="geometry" />
        </mxCell>
        <mxCell id="8qyLDLOVZx2aeD9UTa0B-9" value="http" style="text;html=1;align=center;verticalAlign=middle;resizable=0;points=[];autosize=1;strokeColor=none;fillColor=none;" vertex="1" parent="1">
          <mxGeometry x="330" y="200" width="40" height="30" as="geometry" />
        </mxCell>
        <mxCell id="8qyLDLOVZx2aeD9UTa0B-11" value="VPC" style="text;html=1;align=center;verticalAlign=middle;resizable=0;points=[];autosize=1;strokeColor=none;fillColor=none;" vertex="1" parent="1">
          <mxGeometry x="350" y="60" width="50" height="30" as="geometry" />
        </mxCell>
        <mxCell id="8qyLDLOVZx2aeD9UTa0B-12" value="K8S Deployment" style="rounded=1;whiteSpace=wrap;html=1;" vertex="1" parent="1">
          <mxGeometry x="770" y="210" width="120" height="60" as="geometry" />
        </mxCell>
        <mxCell id="8qyLDLOVZx2aeD9UTa0B-19" value="" style="group" vertex="1" connectable="0" parent="1">
          <mxGeometry x="1000" y="153.75" width="70" height="172.5" as="geometry" />
        </mxCell>
        <mxCell id="8qyLDLOVZx2aeD9UTa0B-13" value="K8S Pod" style="rounded=1;whiteSpace=wrap;html=1;" vertex="1" parent="8qyLDLOVZx2aeD9UTa0B-19">
          <mxGeometry y="35" width="70" height="35" as="geometry" />
        </mxCell>
        <mxCell id="8qyLDLOVZx2aeD9UTa0B-14" value="K8S Pod" style="rounded=1;whiteSpace=wrap;html=1;" vertex="1" parent="8qyLDLOVZx2aeD9UTa0B-19">
          <mxGeometry width="70" height="35" as="geometry" />
        </mxCell>
        <mxCell id="8qyLDLOVZx2aeD9UTa0B-15" value="K8S Pod" style="rounded=1;whiteSpace=wrap;html=1;" vertex="1" parent="8qyLDLOVZx2aeD9UTa0B-19">
          <mxGeometry y="67.5" width="70" height="35" as="geometry" />
        </mxCell>
        <mxCell id="8qyLDLOVZx2aeD9UTa0B-16" value="K8S Pod" style="rounded=1;whiteSpace=wrap;html=1;" vertex="1" parent="8qyLDLOVZx2aeD9UTa0B-19">
          <mxGeometry y="137.5" width="70" height="35" as="geometry" />
        </mxCell>
        <mxCell id="8qyLDLOVZx2aeD9UTa0B-17" value="K8S Pod" style="rounded=1;whiteSpace=wrap;html=1;" vertex="1" parent="8qyLDLOVZx2aeD9UTa0B-19">
          <mxGeometry y="102.5" width="70" height="35" as="geometry" />
        </mxCell>
        <mxCell id="8qyLDLOVZx2aeD9UTa0B-21" value="" style="endArrow=classic;html=1;rounded=0;" edge="1" parent="1">
          <mxGeometry width="50" height="50" relative="1" as="geometry">
            <mxPoint x="910" y="240" as="sourcePoint" />
            <mxPoint x="980" y="240" as="targetPoint" />
          </mxGeometry>
        </mxCell>
        <mxCell id="8qyLDLOVZx2aeD9UTa0B-23" value="80" style="text;html=1;align=center;verticalAlign=middle;resizable=0;points=[];autosize=1;strokeColor=none;fillColor=none;" vertex="1" parent="1">
          <mxGeometry x="400" y="180" width="40" height="30" as="geometry" />
        </mxCell>
        <mxCell id="8qyLDLOVZx2aeD9UTa0B-24" value="443" style="text;html=1;align=center;verticalAlign=middle;resizable=0;points=[];autosize=1;strokeColor=none;fillColor=none;" vertex="1" parent="1">
          <mxGeometry x="180" y="175" width="40" height="30" as="geometry" />
        </mxCell>
        <mxCell id="8qyLDLOVZx2aeD9UTa0B-25" value="nodeport 30444" style="text;html=1;align=center;verticalAlign=middle;resizable=0;points=[];autosize=1;strokeColor=none;fillColor=none;" vertex="1" parent="1">
          <mxGeometry x="535" y="180" width="110" height="30" as="geometry" />
        </mxCell>
        <mxCell id="8qyLDLOVZx2aeD9UTa0B-27" value="targetport 80" style="text;html=1;align=center;verticalAlign=middle;resizable=0;points=[];autosize=1;strokeColor=none;fillColor=none;" vertex="1" parent="1">
          <mxGeometry x="950" y="123.75" width="90" height="30" as="geometry" />
        </mxCell>
        <mxCell id="8qyLDLOVZx2aeD9UTa0B-28" value="port 80" style="text;html=1;align=center;verticalAlign=middle;resizable=0;points=[];autosize=1;strokeColor=none;fillColor=none;" vertex="1" parent="1">
          <mxGeometry x="630" y="270" width="60" height="30" as="geometry" />
        </mxCell>
      </root>
    </mxGraphModel>
  </diagram>
</mxfile>
